<svg xmlns="http://www.w3.org/2000/svg" width="58" height="58" viewBox="0 0 58 58">
    <g fill="none" fill-rule="evenodd">
        <circle cx="29" cy="29" r="29" fill="#CCD9EF"/>
        <g fill-rule="nonzero">
            <path fill="#CCD9EF" d="M17.777 55.32l.04.018 1.375-9.32-1.415 9.302z"/>
            <path fill="#CCD9EF" d="M29.103.048c-8.296 0-15.768 3.514-21.022 9.128h9.734c.752 0 1.368.616 1.368 1.368v8.364c.034.022.07.037.1.067l1.243 1.043c.217.217.217.568 0 .785l-1.243 1.043c-.03.03-.066.046-.1.067v8.365c0 .752-.616 1.367-1.368 1.367H1.676c-.616 0-1.134-.416-1.303-.979.623 9.958 6.304 18.538 14.507 23.208l1.507-8.901 1.553-7.863.089-.447s.944-3.226 5.72-5.977c1.788-1.03 2.999-1.741 3.77-2.2.38-.876.995-1.859 1.994-2.656.308-.246.645-.452.996-.638l.065.588c-.248.144-.489.3-.713.478-.632.503-1.096 1.097-1.44 1.685l.222-.137 2.005-1.366-.29-2.6c-.017-.01-2.786.479-3.672-1.365-.776-1.617-1.036-9.247-1.095-11.602-.78-.76-1.474-1.766-1.742-2.711-.272-.962-.458-2.475.383-3.016.623-.4 1.956.092 2.76.435-1.302-.642-1.536-2.194 3.28-1.328 1.14.205 2.296.29 3.392.667 1.99.685 4.067 1.674 5.033 3.543.969 1.872.575 4.127.158 6.193-.183.904-.378.828-.41 1.929.176 1.505.01 3.188.138 4.538l-.057-.016c.309 2.649.734 4.99.795 5.296h.002c.009.046.007.044 0 .003-.002.004-.01.023-.022.057l.127.045c-.037-.036-.069-.075-.107-.11-.017-.083-.072-.38-.148-.82.532.371.956.815 1.298 1.313.735.28 1.446.576 2.085.881 0 0 7.664 2.743 8.432 6.5.341 1.668.481 7.23-1.911 12.157 0 0-.412 1.768-.995 4.057 6.014-5.277 9.815-13.014 9.815-21.644C57.897 12.94 45.005.048 29.103.048z" opacity=".1"/>
            <path fill="#FFF" d="M50.988 34.273c-.768-3.758-8.432-6.5-8.432-6.5-.64-.306-1.35-.602-2.085-.882 1.537 2.235 1.359 5.575 1.195 8.464-.078 1.395-.15 2.73-.03 3.815.075 0 .15 0 .226.01.748.112 1.265.809 1.154 1.557-.11.748-.807 1.265-1.556 1.154-.748-.11-1.265-.807-1.154-1.556.07-.477.38-.858.79-1.044-.135-1.146-.062-2.526.02-3.967.183-3.251.376-6.813-1.688-8.816l-.127-.045c-.241.628-2.5 6.219-8.055 10.243 0 0-1.49-7.191-.487-9.271l-.11-.995-2.006 1.366-.223.137c-.662 1.13-.874 2.235-.932 2.642 1.273.841.092 4.04-.055 4.42-.927 2.775-1.915 4.745-2.948 5.885l.007.023h2.803l-.144.963h-2.22c.029.037.057.077.084.107.23.256.477.363.664.408.118-.14.297-.224.491-.195.299.044.505.322.46.62-.044.299-.322.505-.62.46-.2-.03-.35-.168-.42-.344-.283-.06-.647-.206-.984-.58-.126-.138-.236-.298-.334-.476H23.18c-.1.042-.2.077-.3.105-.45.123-.82.07-1.087-.02-.106.067-.234.103-.369.084-.298-.045-.504-.322-.46-.62.045-.3.322-.505.62-.46.214.03.376.184.437.377l.064-.43h1.567c.071-.06.142-.119.218-.193-.298-1.523-.077-3.768.664-6.709.077-.298.783-2.914 1.916-3.49.165-.083.335-.117.504-.111.06-.388.21-1.107.564-1.924-.771.46-1.982 1.172-3.77 2.201-4.776 2.751-5.72 5.977-5.72 5.977l-.089.447c.675 1.145 1.394 2.262 2.135 3.366l-.883 5.543-1.374 9.32c1.668.71 3.418 1.266 5.23 1.654 1.37-.48 11.025-3.878 12.117-4.602 2-1.325 8.542-12.148 8.542-12.148l-4.415 14.68-16.142 2.094c1.921.403 3.912.62 5.953.62 7.273 0 13.911-2.703 18.98-7.15.582-2.29.994-4.058.994-4.058 2.392-4.926 2.252-10.49 1.911-12.156z"/>
            <path fill="#FFF" d="M27.09 30.987c-.035-.014-.07-.023-.105-.029-.093-.013-.186.004-.284.055-.774.392-1.44 2.395-1.631 3.134-.74 2.936-.855 4.819-.715 6.023.749-.955 1.635-2.585 2.56-5.353.34-.886 1.095-3.464.176-3.83z"/>
            <path fill="#ECF0F9" d="M20.075 40.476c-.741-1.104-1.46-2.221-2.135-3.366l-1.553 7.863-1.507 8.901c.935.533 1.9 1.019 2.897 1.446l1.415-9.301.883-5.543z"/>
            <path fill="#DE1B50" d="M39.323 26.403L39.321 26.403 39.322 26.403zM35.021 28.444c-1.052.5-2.247.423-3.215-.121l-.005.006c-.017-.01-.032-.025-.05-.035-.141-.083-.275-.18-.406-.283-.041-.033-.086-.061-.126-.097-.165-.144-.32-.301-.46-.479-1.003 2.08.487 9.271.487 9.271 5.554-4.024 7.814-9.615 8.055-10.243l.021-.057v-.003l-4.3 2.041z"/>
            <path fill="#FABCA3" d="M30.363 23.884c.14-.016.29-.042.453-.07.899-.156 1.76-.413 2.622-.708l3.507-1.202c-.526.863-1.207 1.646-1.857 2.403-1.097 1.279-2.131 2.607-3.196 3.912l-.086.104c.968.544 2.163.62 3.215.121l4.3-2.04v-.001c-.06-.307-.486-2.647-.795-5.296-.904-.255-1.89-.593-2.317-1.424-.194-.376-.246-.816-.466-1.177-.441-.723-1.427-.947-1.916-1.639-.756-1.071.042-2.581-.281-3.852-.057-.221-.159-.448-.354-.567-.174-.107-.39-.11-.594-.11l-2.297.003c-1.36.001-2.82-.027-3.931-.813-.261-.185-.525-.408-.78-.655.06 2.355.32 9.985 1.096 11.602.886 1.844 3.655 1.355 3.672 1.366l.29 2.599.111.995-.396-3.551zM39.322 26.406c.008.04.01.043.001-.003h-.001v.003zM31.752 28.294c-.142-.083-.276-.18-.407-.283.13.104.265.2.407.283z"/>
            <path fill="#FABCA3" d="M31.219 27.914c-.165-.143-.32-.301-.46-.479.14.178.295.335.46.48z"/>
            <path fill="#F69679" d="M31.345 28.01c.13.104.265.201.407.284.017.01.032.025.05.035l.004-.006.086-.104c1.065-1.305 2.1-2.633 3.196-3.912.65-.757 1.331-1.54 1.857-2.403l-3.507 1.202c-.862.295-1.723.552-2.622.707-.163.029-.313.055-.453.07l.396 3.552c.14.178.295.336.46.48.04.035.085.063.126.096z"/>
            <path fill="#1F2B7B" d="M30.301 12.34c.766 0 1.531 0 2.297-.002.204 0 .42.003.594.11.195.12.297.346.354.567.323 1.271-.475 2.781.281 3.852.489.692 1.475.916 1.916 1.639.22.36.272.8.466 1.177.427.831 1.413 1.17 2.317 1.424l.057.016c-.128-1.35.038-3.033-.139-4.538.033-1.101.228-1.025.41-1.93.418-2.065.812-4.32-.157-6.192-.966-1.869-3.044-2.858-5.033-3.543-1.096-.377-2.252-.462-3.392-.667-4.816-.866-4.582.686-3.28 1.328-.804-.343-2.137-.836-2.76-.435-.84.54-.655 2.054-.383 3.016.268.945.961 1.95 1.742 2.71.254.248.518.47.779.656 1.11.786 2.57.814 3.931.813z"/>
            <path fill="#ECF0F9" d="M39.292 54.923l4.415-14.68s-6.541 10.823-8.542 12.148c-1.092.724-10.747 4.122-12.117 4.602.035.007.068.016.102.024l16.142-2.094zM22.752 41.444c.236-.067.544-.224.9-.531h-1.566l-.064.429c.012.037.014.077.017.117.18.048.419.07.713-.015zM27.151 41.876l.144-.963h-2.803c.12.455.282.758.44.963h2.219zM23.18 41.876h1.092c-.091-.165-.172-.345-.24-.543-.28.241-.564.422-.851.543z"/>
            <path fill="#586BB2" d="M41.116 35.324c-.082 1.441-.155 2.82-.02 3.967.167-.076.35-.117.54-.12-.12-1.085-.048-2.42.03-3.816.164-2.889.342-6.229-1.195-8.464-.342-.498-.766-.942-1.298-1.313.076.44.131.737.148.82.038.035.07.074.107.11 2.064 2.003 1.871 5.565 1.688 8.816zM26.45 30.52c-1.132.576-1.838 3.192-1.915 3.49-.74 2.941-.962 5.186-.664 6.709-.076.074-.147.132-.218.194-.357.307-.665.464-.9.531-.295.085-.535.063-.714.015.004.042.013.082.007.125-.025.164-.122.294-.252.376.267.09.636.144 1.087.02.1-.027.2-.062.3-.104.287-.12.57-.302.851-.543.068.198.149.378.24.543.098.178.208.338.334.477.337.373.701.52.984.58-.034-.087-.055-.179-.04-.277.015-.104.066-.19.13-.265-.188-.045-.434-.152-.665-.408-.027-.03-.055-.07-.084-.107-.157-.205-.319-.508-.439-.963l-.007-.023c1.033-1.14 2.021-3.11 2.948-5.886.147-.379 1.328-3.578.055-4.42.058-.406.27-1.51.932-2.641.345-.588.809-1.182 1.441-1.685.224-.178.465-.334.713-.478l-.065-.588c-.351.186-.688.392-.996.638-.999.797-1.614 1.78-1.994 2.655-.355.817-.504 1.536-.564 1.924-.17-.006-.34.028-.504.112zm.464 4.297c-.924 2.768-1.81 4.398-2.56 5.353-.139-1.204-.024-3.087.716-6.023.191-.739.857-2.742 1.63-3.134.1-.05.192-.068.285-.055.035.006.07.015.106.03.92.365.164 2.943-.177 3.83z"/>
            <path fill="#1F2B7B" d="M22.046 41.584c.006-.043-.003-.083-.007-.125-.003-.04-.005-.08-.017-.117-.061-.193-.223-.346-.436-.378-.299-.044-.576.162-.62.46-.045.299.161.576.46.62.134.02.262-.016.368-.084.13-.082.227-.212.252-.376zM41.096 39.29c-.41.187-.72.568-.79 1.045-.111.749.406 1.445 1.154 1.556.749.111 1.445-.406 1.556-1.154.111-.748-.406-1.445-1.154-1.556-.076-.011-.151-.012-.225-.01-.191.003-.374.044-.541.12zm.67.537c.392.058.662.423.604.814-.058.392-.422.662-.814.604-.392-.058-.662-.422-.604-.814.058-.392.423-.662.814-.604zM25.59 42.932c.07.176.22.315.42.344.298.045.576-.161.62-.46.045-.298-.161-.576-.46-.62-.194-.029-.373.055-.49.195-.064.075-.115.16-.13.265-.015.098.006.19.04.276z"/>
            <path fill="#F1F1F2" d="M40.952 40.43c-.058.393.212.757.604.815.392.058.756-.212.814-.604.058-.391-.212-.756-.604-.814-.391-.058-.756.212-.814.604z"/>
            <path fill="#DE1B50" d="M1.676 31.645h16.14c.751 0 1.367-.615 1.367-1.367v-8.365c.034-.021.07-.037.1-.067l1.243-1.043c.217-.217.217-.568 0-.785l-1.243-1.043c-.03-.03-.066-.045-.1-.067v-8.364c0-.752-.616-1.368-1.368-1.368H1.676c-.752 0-1.367.616-1.367 1.368v19.734c0 .135.026.264.064.388.169.563.687.979 1.303.979zm8.675-5.76c0 .136-.112.248-.248.248H4.465c-.137 0-.248-.112-.248-.248v-.66c0-.137.111-.249.248-.249h5.638c.136 0 .248.112.248.248v.661zm4.924-3.377c0 .137-.112.248-.248.248H4.465c-.137 0-.248-.111-.248-.248v-.66c0-.137.111-.248.248-.248h10.562c.136 0 .248.111.248.247v.661zm0-3.376c0 .136-.112.247-.248.247H4.465c-.137 0-.248-.111-.248-.247v-.661c0-.137.111-.248.248-.248h10.562c.136 0 .248.111.248.248v.66zm0-4.038v.66c0 .137-.112.249-.248.249H4.465c-.137 0-.248-.112-.248-.248v-.661c0-.136.111-.248.248-.248h10.562c.136 0 .248.112.248.248z"/>
            <path fill="#FFF" d="M4.217 15.094v.66c0 .137.111.249.248.249h10.562c.136 0 .248-.112.248-.248v-.661c0-.136-.112-.248-.248-.248H4.465c-.137 0-.248.112-.248.248zM15.027 18.223H4.465c-.137 0-.248.111-.248.248v.66c0 .137.111.248.248.248h10.562c.136 0 .248-.111.248-.247v-.661c0-.137-.112-.248-.248-.248zM15.027 21.6H4.465c-.137 0-.248.111-.248.247v.661c0 .137.111.248.248.248h10.562c.136 0 .248-.111.248-.248v-.66c0-.137-.112-.248-.248-.248zM10.103 24.976H4.465c-.137 0-.248.112-.248.248v.661c0 .136.111.248.248.248h5.638c.136 0 .248-.112.248-.248v-.66c0-.137-.112-.249-.248-.249z"/>
        </g>
    </g>
</svg>
